<?xml version="1.0" encoding="UTF-8" standalone="no"?>
<!-- Uploaded to: SVG Repo, www.svgrepo.com, Generator: SVG Repo Mixer Tools -->

<svg
   width="800px"
   height="800px"
   viewBox="0 0 48 48"
   version="1"
   enable-background="new 0 0 48 48"
   id="svg4"
   sodipodi:docname="grid.svg"
   inkscape:version="1.2.2 (732a01da63, 2022-12-09)"
   xmlns:inkscape="http://www.inkscape.org/namespaces/inkscape"
   xmlns:sodipodi="http://sodipodi.sourceforge.net/DTD/sodipodi-0.dtd"
   xmlns:xlink="http://www.w3.org/1999/xlink"
   xmlns="http://www.w3.org/2000/svg"
   xmlns:svg="http://www.w3.org/2000/svg">
  <defs
     id="defs8">
    <linearGradient
       inkscape:collect="always"
       id="linearGradient932">
      <stop
         style="stop-color:#3fffe3;stop-opacity:1;"
         offset="0"
         id="stop930" />
      <stop
         style="stop-color:#0076ff;stop-opacity:1;"
         offset="1"
         id="stop928" />
    </linearGradient>
    <linearGradient
       inkscape:collect="always"
       xlink:href="#linearGradient932"
       id="linearGradient934"
       x1="24"
       y1="2.617332"
       x2="24.303797"
       y2="35.754623"
       gradientUnits="userSpaceOnUse"
       spreadMethod="pad" />
  </defs>
  <sodipodi:namedview
     id="namedview6"
     pagecolor="#505050"
     bordercolor="#ffffff"
     borderopacity="1"
     inkscape:showpageshadow="0"
     inkscape:pageopacity="0"
     inkscape:pagecheckerboard="1"
     inkscape:deskcolor="#505050"
     showgrid="false"
     inkscape:zoom="1.28375"
     inkscape:cx="324.8296"
     inkscape:cy="400"
     inkscape:window-width="1350"
     inkscape:window-height="1230"
     inkscape:window-x="474"
     inkscape:window-y="86"
     inkscape:window-maximized="0"
     inkscape:current-layer="svg4" />
  <path
     fill="#90CAF9"
     d="M7,7v34h34V7H7z M39,15h-6V9h6V15z M25,15V9h6v6H25z M31,17v6h-6v-6H31z M23,15h-6V9h6V15z M23,17v6h-6v-6 H23z M15,23H9v-6h6V23z M15,25v6H9v-6H15z M17,25h6v6h-6V25z M23,33v6h-6v-6H23z M25,33h6v6h-6V33z M25,31v-6h6v6H25z M33,25h6v6h-6 V25z M33,23v-6h6v6H33z M15,9v6H9V9H15z M9,33h6v6H9V33z M33,39v-6h6v6H33z"
     id="path2"
     style="fill:url(#linearGradient934);fill-opacity:1" />
</svg>
